<svg id="Calque_1" data-name="Calque 1" xmlns="http://www.w3.org/2000/svg" width="173" height="137.63" viewBox="0 0 173 137.63">
  <defs>
    <style>
      .cls-1 {
        fill: none;
        stroke: #fff;
        stroke-miterlimit: 10;
      }

      .cls-2 {
        font-size: 6.27px;
        font-family: Myriad Pro;
      }

      .cls-2, .cls-3 {
        fill: #fff;
      }
    </style>
  </defs>
  <title>apprentissage</title>
  <circle class="cls-1" cx="90.43" cy="11.67" r="5.32"/>
  <rect class="cls-1" x="0.5" y="98.13" width="58" height="39"/>
  <rect class="cls-1" x="116.5" y="105.13" width="56" height="32"/>
  <rect class="cls-1" x="58.5" y="80.13" width="58" height="57"/>
  <path class="cls-1" d="M153.57,14.63L134.49,29.82l0-3.7L152.79,13S157.8,10.59,153.57,14.63Z" transform="translate(-37 -6.38)"/>
  <path class="cls-1" d="M100.61,14.6l19,15.25,0-3.7L101.39,13S96.39,10.55,100.61,14.6Z" transform="translate(-37 -6.38)"/>
  <path class="cls-1" d="M122.5,26.5h9.1l-0.83,53.75s-3.1,13-3.72-.08a126.26,126.26,0,0,1,1-23.39s-2.38-1.8-3.62,0-1.14,25.64-1.14,25.64-3.62,7-3.52-.29,1.24-26.74,1.24-26.74Z" transform="translate(-37 -6.38)"/>
  <g id="_Groupe_" data-name="&lt;Groupe&gt;">
    <rect id="_Tracé_" data-name="&lt;Tracé&gt;" class="cls-1" x="119.89" y="20.18" width="11.03" height="1.37"/>
    <path id="_Tracé_transparent_" data-name="&lt;Tracé transparent&gt;" class="cls-1" d="M169.22,9.3l0.48-2.43H155.15l0.48,2.43h-3.78v0.91a8.73,8.73,0,0,0,1.83,5.37,8.88,8.88,0,0,0,4.36,3,5.68,5.68,0,0,0,3.46,2.22v2.05h-3.25v2.29h8.28V22.89h-3.2V20.84a5.68,5.68,0,0,0,3.47-2.22,8.88,8.88,0,0,0,4.36-3A8.73,8.73,0,0,0,173,10.21V9.3h-3.78Zm-15.47,1.83H156l1,5A7.07,7.07,0,0,1,153.75,11.13Zm8.68,8.42V18.18A3,3,0,0,0,165.08,16l1.34,0.32A4.29,4.29,0,0,1,162.43,19.55Zm5.42-3.39,1-5h2.25A7.07,7.07,0,0,1,167.85,16.16Z" transform="translate(-37 -6.38)"/>
  </g>
  <text class="cls-2" transform="translate(122.8 7.27) rotate(-0.24)">JS</text>
  <path class="cls-3" d="M137.8,105.94l0.45-1.17-1.22-.27a9.74,9.74,0,0,0-1.15-.17,10,10,0,0,0,1-4.1l0-1.25-1.24.17c-0.09,0-.35.05-0.71,0.13a4.71,4.71,0,0,0,.22-1.34,9.35,9.35,0,0,0-1.6-4.66l-0.71-1-0.91.84a10.08,10.08,0,0,0-.94,1L131,94a9.35,9.35,0,0,0-3.76-3.19l-1.13-.52-0.35,1.19c-0.1.34-.94,3.38,0.25,5.42a5.89,5.89,0,0,0,3.14,2.39,8.59,8.59,0,0,1,.74,4.19c0,3.52-2.29,7.86-5.35,10.27-3.07-2.42-5.37-6.75-5.37-10.27a8.59,8.59,0,0,1,.74-4.19A5.89,5.89,0,0,0,123,96.93c1.19-2,.35-5.08.25-5.42l-0.35-1.19-1.13.52A9.35,9.35,0,0,0,118,94l-0.07.12a10.1,10.1,0,0,0-.94-1l-0.91-.84-0.71,1a9.35,9.35,0,0,0-1.6,4.66,4.71,4.71,0,0,0,.22,1.34c-0.36-.08-0.62-0.12-0.71-0.13L112.09,99l0,1.25a10,10,0,0,0,1,4.1,9.67,9.67,0,0,0-1.15.17l-1.22.27,0.45,1.17a9.57,9.57,0,0,0,2.77,3.83,10.28,10.28,0,0,0-1.38,1.1l-0.9.87,1,0.76a9.38,9.38,0,0,0,4.57,1.81h0.17a6,6,0,0,0,3.37-1.2A16,16,0,0,0,122.6,115a6.56,6.56,0,0,1-2.78.66v2.15a9.18,9.18,0,0,0,4.69-1.41,9.21,9.21,0,0,0,4.7,1.41v-2.15a6.61,6.61,0,0,1-2.79-.66,16,16,0,0,0,1.8-1.87,6,6,0,0,0,3.35,1.19h0.17a9.38,9.38,0,0,0,4.57-1.81l1-.76-0.9-.87a10.26,10.26,0,0,0-1.38-1.1A9.57,9.57,0,0,0,137.8,105.94Zm-21.43-3.1a3.46,3.46,0,0,1,.52,2,3.5,3.5,0,0,1-1.67-1.14,5.46,5.46,0,0,1-.8-2A4.07,4.07,0,0,1,116.37,102.84Zm3.52-7.74a5.52,5.52,0,0,1,1.57-1.59,4.17,4.17,0,0,1-.3,2.34,3.49,3.49,0,0,1-1.63,1.3A3.58,3.58,0,0,1,119.89,95.1Zm-3.39.67a4.19,4.19,0,0,1,.94,2.16,3.5,3.5,0,0,1-.74,1.95,3.58,3.58,0,0,1-.74-1.95A5.51,5.51,0,0,1,116.5,95.76Zm-1.17,12.33a5.52,5.52,0,0,1-1.47-1.65,4.12,4.12,0,0,1,2.27.46,3.47,3.47,0,0,1,1.17,1.66l-0.35,0A3.28,3.28,0,0,1,115.33,108.1Zm2,4.05a5.53,5.53,0,0,1-2.12-.63,4.79,4.79,0,0,1,1.84-.79h0.52a3.71,3.71,0,0,1,1.71.8A3.55,3.55,0,0,1,117.34,112.15Zm16.43-8.49a3.51,3.51,0,0,1-1.67,1.14,3.4,3.4,0,0,1,.52-2,4.09,4.09,0,0,1,1.95-1.2A5.45,5.45,0,0,1,133.77,103.66Zm-1.27-7.9a5.52,5.52,0,0,1,.54,2.16,3.58,3.58,0,0,1-.74,1.95,3.43,3.43,0,0,1-.74-2A4.19,4.19,0,0,1,132.5,95.76Zm-4.66.09a4.2,4.2,0,0,1-.3-2.34,5.5,5.5,0,0,1,1.57,1.59,3.57,3.57,0,0,1,.36,2.05A3.49,3.49,0,0,1,127.84,95.85Zm3.82,16.3a3.55,3.55,0,0,1-2-.62,3.62,3.62,0,0,1,1.7-.79h0.53a4.75,4.75,0,0,1,1.84.79A5.51,5.51,0,0,1,131.66,112.15Zm2-4.05a3.26,3.26,0,0,1-1.62.49l-0.35,0a3.47,3.47,0,0,1,1.17-1.66,4.1,4.1,0,0,1,2.27-.46A5.53,5.53,0,0,1,133.67,108.1Z" transform="translate(-37 -6.38)"/>
</svg>
