<svg id="Calque_1" data-name="Calque 1" xmlns="http://www.w3.org/2000/svg" width="115.4" height="127.42" viewBox="0 0 115.4 127.42">
  <defs>
    <style>
      .cls-1 {
        fill: #ede060;
        stroke: #000;
      }

      .cls-1, .cls-6 {
        stroke-miterlimit: 10;
      }

      .cls-2 {
        fill: #e2c810;
      }

      .cls-3 {
        fill: #474747;
      }

      .cls-4 {
        font-size: 8.57px;
      }

      .cls-4, .cls-5, .cls-7, .cls-8 {
        fill: #fff;
      }

      .cls-4, .cls-5 {
        font-family: Segoe UI;
        font-weight: 700;
      }

      .cls-5 {
        font-size: 9.05px;
      }

      .cls-6 {
        stroke: #fff;
      }

      .cls-7 {
        font-size: 5.04px;
      }

      .cls-7, .cls-8 {
        font-family: Myriad Pro;
      }

      .cls-8 {
        font-size: 5.06px;
      }
    </style>
  </defs>
  <title>error404</title>
  <polyline class="cls-1" points="36 111 0.5 111 0.5 79 75.5 79 75.5 111 39.5 111 39.5 122 34.5 122 34.5 111.5"/>
  <rect class="cls-2" x="2.93" y="80.65" width="68.59" height="27.4"/>
  <rect class="cls-3" x="5.84" y="83.55" width="63.69" height="8.89"/>
  <rect class="cls-3" x="5.84" y="96.07" width="63.69" height="8.89"/>
  <circle cx="74.43" cy="11.34" r="11.34"/>
  <text class="cls-4" transform="translate(14.97 90.93)">ER<tspan x="10.16" y="0">R</tspan><tspan x="15.68" y="0">OR 404</tspan></text>
  <text class="cls-5" transform="translate(10.46 103.48)">F<tspan x="4.22" y="0">ALSE S</tspan><tspan x="32.68" y="0">T</tspan><tspan x="37.36" y="0">A</tspan><tspan x="43.72" y="0">R</tspan><tspan x="49.45" y="0">T</tspan></text>
  <path d="M133.82,38l1,85.71s4.58,16.49,5.19-.39,0.77-39.83.77-39.83,4.19,2.79,5.31-.08,0.64,41.93.64,41.93,3.7,7.78,4.19-.46S149.44,38,149.44,38H133.82Z" transform="translate(-67 -10.5)"/>
  <path d="M133.72,37.26l-32.28,10.9s-2.53,1.6,2.2,3.82,30.68,18,30.68,18,3.92-.44.79-4.42-31.28-14.73-27-15.45S141,42.25,141,42.25,136.32,36.75,133.72,37.26Z" transform="translate(-67 -10.5)"/>
  <path d="M149.44,37.26l32.28,10.9s2.53,1.6-2.2,3.82-30.68,18-30.68,18-3.92-.44-0.79-4.42,31.28-14.73,27-15.45-32.88-7.91-32.88-7.91S146.84,36.75,149.44,37.26Z" transform="translate(-67 -10.5)"/>
  <g>
    <path class="cls-6" d="M153.29,127.14a6,6,0,0,1-5.89-2.84c-2.06-3.45-3.43,6.22-3.43,6.22s3.29,2.85,5.26,2.54,9.16,3.56,9.16,3.56a10.23,10.23,0,0,0,6.36-.09c3.26-1.2,5.41-4.27,3.17-5s-6.28-.78-8.64-3.49-2.41-5.83-3.88-4.65A8,8,0,0,0,153.29,127.14Z" transform="translate(-67 -10.5)"/>
    <polygon class="cls-6" points="94.36 123.22 92.84 124.07 91.85 123.66 93.13 122.43 94.36 123.22"/>
    <polygon class="cls-6" points="96.93 124.79 95.85 125.22 95.23 124.87 96.18 124.16 96.93 124.79"/>
    <polygon class="cls-6" points="90.48 121.22 91.62 121.8 90.08 123.03 88.57 122.68 90.48 121.22"/>
    <polygon class="cls-6" points="87.66 119.65 89.13 120.4 87.15 121.98 85.19 121.53 87.66 119.65"/>
    <polygon points="97.98 125.35 97.87 126.96 96.47 125.5 97.98 125.35"/>
    <polygon points="99.78 123.84 100.36 125.05 98.91 124.45 99.78 123.84"/>
    <polyline points="95.15 125.68 94.5 127.21 93.83 125.73 94.97 125.7"/>
    <polygon points="92.47 125.85 91.59 127.42 91.34 125.31 92.47 125.85"/>
    <text class="cls-7" transform="translate(78.07 119.4) rotate(10.36)">JS</text>
  </g>
  <path class="cls-6" d="M135,126.57a6.06,6.06,0,0,0,6.06-2.54c2.25-3.36,3.12,6.42,3.12,6.42s-3.44,2.68-5.41,2.28-9.38,3.09-9.38,3.09a10.28,10.28,0,0,1-6.37-.42c-3.21-1.37-5.2-4.56-2.92-5.13s6.34-.45,8.85-3,2.72-5.72,4.14-4.46A8,8,0,0,1,135,126.57Z" transform="translate(-67 -10.5)"/>
  <polygon class="cls-6" points="66.5 119.02 64.98 119.69 66.89 121.38 68.87 121.03 66.5 119.02"/>
  <polygon points="55.85 124.19 55.88 125.82 57.36 124.43 55.85 124.19"/>
  <polygon points="54.12 122.59 53.48 123.77 54.96 123.24 54.12 122.59"/>
  <polyline points="58.67 124.68 59.24 126.24 59.99 124.79 58.85 124.7"/>
  <polygon points="61.36 124.99 62.15 126.61 62.51 124.5 61.36 124.99"/>
  <polygon class="cls-6" points="59.59 122.25 61.08 123.18 62.09 122.82 60.87 121.52 59.59 122.25"/>
  <polygon class="cls-6" points="56.94 123.69 57.99 124.17 58.63 123.85 57.72 123.1 56.94 123.69"/>
  <polygon class="cls-6" points="63.59 120.44 62.41 120.97 63.89 122.28 65.43 122 63.59 120.44"/>
  <text class="cls-8" transform="translate(70.86 121.15) rotate(-11.67)">JS</text>
</svg>
