<svg id="bouton" xmlns="http://www.w3.org/2000/svg" width="141.19" height="134.76" viewBox="0 0 141.19 134.76">
  <defs>
    <style>
      .cls-1 {
        stroke: #fff;
      }

      .cls-1, .cls-3 {
        stroke-miterlimit: 10;
      }

      .cls-2 {
        fill: #b3b3b3;
      }

      .cls-3, .cls-4 {
        fill: #fff;
      }

      .cls-3 {
        stroke: #000;
      }
    </style>
  </defs>
  <title>logo</title>
  <polygon class="cls-1" points="1.47 126.25 63.61 78.25 134.48 78.25 86.69 126.25 1.47 126.25"/>
  <polygon class="cls-2" points="54.58 93.51 34.03 104.79 48.95 117.23 52.15 113.52 39.1 105.48 55.99 95.91 54.58 93.51"/>
  <polygon class="cls-2" points="75 118.75 97.88 111.08 85.04 95.75 81.11 98.93 92.86 109.45 74.02 116.06 75 118.75"/>
  <rect class="cls-2" x="114.56" y="112.41" width="23.81" height="3.29" transform="translate(-91.34 157.73) rotate(-59.8)"/>
  <polyline class="cls-3" points="1.38 134.25 86.38 134.25 86.37 127.25 0.88 127.25 0.88 131.79 0.88 134.75"/>
  <polygon class="cls-3" points="86.48 133.55 132.94 83.36 132.9 79.83 86.11 126.1 86.48 133.55"/>
  <polygon class="cls-3" points="138.88 117.25 125.88 117.25 125.88 133.75 137.88 133.55 137.88 130.75 127.88 131 127.88 119.25 138.88 119.25 138.88 117.25"/>
  <polygon class="cls-3" points="112.88 134.25 112.88 117.25 122.88 117.25 122.88 123.25 114.88 123.25 114.88 134.25 112.88 134.25"/>
  <rect class="cls-3" x="114.88" y="119.25" width="6" height="2"/>
  <circle class="cls-4" cx="91.01" cy="9.86" r="9.86"/>
  <path class="cls-4" d="M133.73,27l12,7.69,0.92,20.52,38.92-.79s25.33,7.89,0,7.69-48.82,3.55-48.82-1.38-1.84-16.57-1.84-16.57L113.24,56.95s26,22.29,26.94,24.46,14.28,11.24-1.15,11-43.52,0-43.52,0-5.94-2.88-6.92-5.16c-0.63-1.45.75-2.66,6.92-2.74,15.89-.2,30.86.2,30.86,0.2S93.66,51.82,97.81,49.85,125,32.09,125,32.09L108.63,18.48l-26,1.18s-11.51-3.29-2.3-4.8,30.86-4.07,30.86-4.07Z" transform="translate(-55.62 -8.25)"/>
  <path class="cls-4" d="M132.91,94H122.7l-8.3,14.32s-3.83,9.31,3.41,4.77S132.91,94,132.91,94Z" transform="translate(-55.62 -8.25)"/>
  <polygon class="cls-4" points="44.88 28.42 36.79 35.75 8.38 35.75 8.38 28.59 44.88 28.42"/>
  <polygon class="cls-4" points="8.38 50.75 8.38 57.75 40.34 57.75 36.39 50.75 8.38 50.75"/>
  <path class="cls-4" d="M64,48.52V56H89.5s-5.91-6.76,0-7.37S64,48.52,64,48.52Z" transform="translate(-55.62 -8.25)"/>
</svg>
