<svg id="Calque_1" data-name="Calque 1" xmlns="http://www.w3.org/2000/svg" width="157" height="122.6" viewBox="0 0 157 122.6">
  <defs>
    <style>
      .cls-1 {
        fill: #ede060;
        stroke: #000;
      }

      .cls-1, .cls-4 {
        stroke-miterlimit: 10;
      }

      .cls-2 {
        fill: #e2c810;
      }

      .cls-3 {
        fill: #474747;
      }

      .cls-4 {
        stroke: #fff;
      }

      .cls-5 {
        font-size: 5.45px;
        font-family: Myriad Pro;
      }

      .cls-5, .cls-6, .cls-7 {
        fill: #fff;
      }

      .cls-6 {
        font-size: 7.46px;
      }

      .cls-6, .cls-7 {
        font-family: Segoe UI;
        font-weight: 700;
      }

      .cls-7 {
        font-size: 5.26px;
      }
    </style>
  </defs>
  <title>perfectionnement</title>
  <polyline class="cls-1" points="31 95.25 0.5 95.25 0.5 67.25 65.5 67.25 65.5 95.25 34.5 95.25 34.5 105.25 30.5 105.25 30.5 95.75"/>
  <rect class="cls-2" x="2.62" y="69.03" width="59.66" height="23.83"/>
  <rect class="cls-3" x="5.14" y="71.55" width="55.4" height="7.73"/>
  <rect class="cls-3" x="5.14" y="82.44" width="55.4" height="7.73"/>
  <circle cx="52.17" cy="9.86" r="9.86"/>
  <path d="M124.23,41l-12.57,7.69-1,20.52-40.86-.79s-26.6,7.89,0,7.69,51.26,3.55,51.26-1.38S123,58.13,123,58.13l22.73,12.82s-27.32,22.29-28.29,24.46-15,11.24,1.21,11,45.7,0,45.7,0,6.24-2.88,7.27-5.16c0.66-1.45-.79-2.66-7.27-2.74-16.68-.2-32.4.2-32.4,0.2s34.34-32.94,30-34.92-28.53-17.75-28.53-17.75l17.17-13.61,27.32,1.18s12.09-3.29,2.42-4.8-32.4-4.07-32.4-4.07Z" transform="translate(-56 -22.25)"/>
  <path d="M118,108H131.4l10.86,15.65s5,10.17-4.46,5.22S118,108,118,108Z" transform="translate(-56 -22.25)"/>
  <polygon points="97.99 28.42 111.36 35.75 157 35.75 157 28.59 97.99 28.42"/>
  <polygon points="157 50.75 157 57.75 102.85 57.75 109.49 50.75 157 50.75"/>
  <path d="M213,62.52V70H165.84s11.12-6.76.34-7.37S213,62.52,213,62.52Z" transform="translate(-56 -22.25)"/>
  <path class="cls-4" d="M137.69,129.86a6.52,6.52,0,0,0,4.8-5.2c0.7-4.3,5.93,4.89,5.93,4.89s-2.17,4.17-4.28,4.65-7.8,7.23-7.8,7.23a11.07,11.07,0,0,1-6.43,2.44c-3.76.09-7.14-2.14-5.17-3.72s6-3.28,7.31-7,0.1-6.83,2.05-6.23A8.63,8.63,0,0,1,137.69,129.86Z" transform="translate(-56 -22.25)"/>
  <polygon class="cls-4" points="76.19 117.44 78.06 117.69 78.89 116.88 77.11 116.16 76.19 117.44"/>
  <polygon class="cls-4" points="74.23 120.04 75.49 120.04 75.97 119.44 74.73 119.11 74.23 120.04"/>
  <polygon class="cls-4" points="79.3 113.88 78.38 114.92 80.42 115.54 81.81 114.58 79.3 113.88"/>
  <polygon class="cls-4" points="81.52 111.18 80.33 112.52 82.95 113.32 84.74 112.09 81.52 111.18"/>
  <text class="cls-5" transform="translate(87.35 109.68) rotate(-36.24)">JS</text>
  <polygon points="73.4 121.02 74.15 122.6 74.98 120.58 73.4 121.02"/>
  <polygon points="70.98 120.22 70.89 121.67 72.1 120.49 70.98 120.22"/>
  <polyline points="76.38 120.23 77.64 121.51 77.72 119.75 76.56 120.18"/>
  <polygon points="79.15 119.33 80.65 120.56 80.06 118.34 79.15 119.33"/>
  <path class="cls-4" d="M165.86,106.66a6.52,6.52,0,0,0,2.34-6.68c-1.07-4.22,7.39,2.13,7.39,2.13s-0.34,4.69-2.08,6-4.29,9.73-4.29,9.73a11.07,11.07,0,0,1-4.93,4.8c-3.41,1.58-7.41.87-6.22-1.36s4.21-5.4,3.95-9.28-2.62-6.31-.59-6.53A8.63,8.63,0,0,1,165.86,106.66Z" transform="translate(-56 -22.25)"/>
  <polygon class="cls-4" points="108.72 95.62 110.53 95.1 110.97 94.03 109.06 94.07 108.72 95.62"/>
  <polygon class="cls-4" points="107.95 98.78 109.11 98.28 109.31 97.54 108.05 97.73 107.95 98.78"/>
  <polygon class="cls-4" points="110.16 91.11 109.72 92.43 111.84 92.19 112.74 90.76 110.16 91.11"/>
  <polygon class="cls-4" points="111.12 87.75 110.56 89.46 113.29 89.15 114.44 87.31 111.12 87.75"/>
  <text class="cls-5" transform="matrix(0.51, -0.86, 0.86, 0.51, 115.81, 84.08)">JS</text>
  <polygon points="107.58 100.02 108.9 101.16 108.85 98.97 107.58 100.02"/>
  <polygon points="105.04 100.24 105.53 101.6 106.17 100.04 105.04 100.24"/>
  <polyline points="110 98.1 111.66 98.78 111.04 97.13 110.15 97.98"/>
  <polygon points="112.18 96.18 114.05 96.71 112.63 94.9 112.18 96.18"/>
  <text class="cls-6" transform="translate(15.08 77.97)">N<tspan x="5.89" y="0">E</tspan><tspan x="10.01" y="0">W </tspan><tspan x="19.56" y="0">W</tspan><tspan x="26.61" y="0">.R.</tspan></text>
  <text class="cls-7" transform="translate(7.08 88.43)">VU<tspan x="7.31" y="0">E</tspan><tspan x="10.23" y="0">JS, ES6, N</tspan><tspan x="33.46" y="0">U</tspan><tspan x="36.33" y="0">X</tspan><tspan x="39.95" y="0">T</tspan><tspan x="43.23" y="0">JS</tspan></text>
</svg>
