<svg id="Calque_1" data-name="Calque 1" xmlns="http://www.w3.org/2000/svg" width="65.11" height="78.99" viewBox="0 0 65.11 78.99">
  <defs>
    <style>
      .cls-1 {
        fill: none;
        stroke: #fff;
        stroke-miterlimit: 10;
      }

      .cls-2 {
        font-size: 10.29px;
        fill: #fff;
        font-family: Myriad Pro;
      }
    </style>
  </defs>
  <title>startingblock</title>
  <path class="cls-1" d="M93.15,114.5H147.5s10-12.5,0-12.5-54.61,1.22-54.61,1.22S84.12,107.5,93.15,114.5Z" transform="translate(-87.33 -36.01)"/>
  <path class="cls-1" d="M111.31,102.41s16.22-9.82,17.23-21.81S150,102.13,150,102.13" transform="translate(-87.33 -36.01)"/>
  <path class="cls-1" d="M111.31,66.83s6.52-4.5,4.69-12.5,13.83,4.33,13.83,4.33S129,67.5,125.67,69.83,117.17,88,117.17,88a20.88,20.88,0,0,1-9.5,8.83c-6.5,2.83-14,1.33-11.67-2.83s8.17-10,7.83-17.33-4.67-12-.83-12.33S111.31,66.83,111.31,66.83Z" transform="translate(-87.33 -36.01)"/>
  <path class="cls-1" d="M96.67,38.67L111,54.33s-1.17-3.9.5-4.7-13.33-13-13.33-13S95.67,35.67,96.67,38.67Z" transform="translate(-87.33 -36.01)"/>
  <path class="cls-1" d="M106,59.5h-5l-13-15.1s-0.84-5.11,2.94-1.77S106,59.5,106,59.5Z" transform="translate(-87.33 -36.01)"/>
  <polygon class="cls-1" points="19.08 51.91 24.33 50.53 25.67 47.49 20.16 47.49 19.08 51.91"/>
  <polygon class="cls-1" points="19.38 57.3 23.2 55.77 23.91 53.36 19.77 53.88 19.38 57.3"/>
  <polygon class="cls-1" points="21.06 41.85 19.62 45.95 26.24 45.35 29.13 40.95 21.06 41.85"/>
  <polygon class="cls-1" points="22.12 35.11 20.26 40.37 28.77 39.61 32.49 33.95 22.12 35.11"/>
  <polygon class="cls-1" points="19.72 61.9 22.17 64.12 22.17 59.99 19.72 61.9"/>
  <polygon class="cls-1" points="14.93 62.22 15.79 64.81 17.07 61.88 14.93 62.22"/>
  <polyline class="cls-1" points="24.38 58.4 27.48 59.74 26.38 56.61 24.65 58.17"/>
  <polygon class="cls-1" points="29.61 52.41 33.1 53.49 30.5 50.02 29.61 52.41"/>
  <text class="cls-2" transform="matrix(0.52, -0.85, 0.85, 0.52, 35.27, 30.53)">JS</text>
</svg>
